@startuml
hide empty description
[*] --> Starting 
Starting --> Active
Active --> Stopping
Stopping -> Stopped: allChildrenStopped
Active --> StoppingNow
StoppingNow --> Stopping
Paused --> Restart
Paused --> Active
Restart --> Starting
Paused --> StoppingNow
Stopped --> [*]
Active --> Errored
Errored --> Active
Errored --> StoppingNow
Errored --> Restart
Errored --> Paused
Restart --> StoppingNow

Active: processes\nmessages
Stopping: stop children,\nprocess buffered\nmessages
Stopped: run onStop,\nparent advised,\nremove this from\nparent, further\nmessages sent\nto dead letters
Paused: messages\nbuffered
Errored: handled by\nsupervisor
Starting: run preStart
StoppingNow: ignore non-system\nmessages

@enduml